<mxfile host="app.diagrams.net" modified="2023-10-23T06:39:13.315Z" agent="Mozilla/5.0 (Windows NT 10.0; Win64; x64) AppleWebKit/537.36 (KHTML, like Gecko) Chrome/118.0.0.0 Safari/537.36" version="22.0.6" etag="eE7EGa94AyDev5CrG189" type="github">
  <diagram name="Page-1" id="85Ee-x2F9uvneITParOF">
    <mxGraphModel>
      <root>
        <mxCell id="0" />
        <mxCell id="1" parent="0" />
      </root>
    </mxGraphModel>
  </diagram>
</mxfile>
